# ‹…
mtllib ..\misc\mtl.mtl
g sphere
usemtl Sphere
v -1.15470053837925 1.15470053837925 1.15470053837925
v -0.666666666666667 1.33333333333333 1.33333333333333
v 0.0 1.41421356237309 1.41421356237309
v 0.666666666666667 1.33333333333333 1.33333333333333
v 1.15470053837925 1.15470053837925 1.15470053837925
v -1.33333333333333 1.33333333333333 0.666666666666667
v -0.816496580927726 1.63299316185545 0.816496580927726
v 0.0 1.78885438199983 0.894427190999916
v 0.816496580927726 1.63299316185545 0.816496580927726
v 1.33333333333333 1.33333333333333 0.666666666666667
v -1.41421356237309 1.41421356237309 0.0
v -0.894427190999916 1.78885438199983 0.0
v 0.0 2.0 0.0
v 0.894427190999916 1.78885438199983 0.0
v 1.41421356237309 1.41421356237309 0.0
v -1.33333333333333 1.33333333333333 -0.666666666666667
v -0.816496580927726 1.63299316185545 -0.816496580927726
v 0.0 1.78885438199983 -0.894427190999916
v 0.816496580927726 1.63299316185545 -0.816496580927726
v 1.33333333333333 1.33333333333333 -0.666666666666667
v -1.15470053837925 1.15470053837925 -1.15470053837925
v -0.666666666666667 1.33333333333333 -1.33333333333333
v 0.0 1.41421356237309 -1.41421356237309
v 0.666666666666667 1.33333333333333 -1.33333333333333
v 1.15470053837925 1.15470053837925 -1.15470053837925
v 1.15470053837925 -1.15470053837925 1.15470053837925
v 0.666666666666667 -1.33333333333333 1.33333333333333
v 0.0 -1.41421356237309 1.41421356237309
v -0.666666666666667 -1.33333333333333 1.33333333333333
v -1.15470053837925 -1.15470053837925 1.15470053837925
v 1.33333333333333 -1.33333333333333 0.666666666666667
v 0.816496580927726 -1.63299316185545 0.816496580927726
v 0.0 -1.78885438199983 0.894427190999916
v -0.816496580927726 -1.63299316185545 0.816496580927726
v -1.33333333333333 -1.33333333333333 0.666666666666667
v 1.41421356237309 -1.41421356237309 0.0
v 0.894427190999916 -1.78885438199983 0.0
v 0.0 -2.0 0.0
v -0.894427190999916 -1.78885438199983 0.0
v -1.41421356237309 -1.41421356237309 0.0
v 1.33333333333333 -1.33333333333333 -0.666666666666667
v 0.816496580927726 -1.63299316185545 -0.816496580927726
v 0.0 -1.78885438199983 -0.894427190999916
v -0.816496580927726 -1.63299316185545 -0.816496580927726
v -1.33333333333333 -1.33333333333333 -0.666666666666667
v 1.15470053837925 -1.15470053837925 -1.15470053837925
v 0.666666666666667 -1.33333333333333 -1.33333333333333
v 0.0 -1.41421356237309 -1.41421356237309
v -0.666666666666667 -1.33333333333333 -1.33333333333333
v -1.15470053837925 -1.15470053837925 -1.15470053837925
v 1.15470053837925 1.15470053837925 -1.15470053837925
v 1.33333333333333 1.33333333333333 -0.666666666666667
v 1.41421356237309 1.41421356237309 0.0
v 1.33333333333333 1.33333333333333 0.666666666666667
v 1.15470053837925 1.15470053837925 1.15470053837925
v 1.33333333333333 0.666666666666667 -1.33333333333333
v 1.63299316185545 0.816496580927726 -0.816496580927726
v 1.78885438199983 0.894427190999916 0.0
v 1.63299316185545 0.816496580927726 0.816496580927726
v 1.33333333333333 0.666666666666667 1.33333333333333
v 1.41421356237309 0.0 -1.41421356237309
v 1.78885438199983 0.0 -0.894427190999916
v 2.0 0.0 0.0
v 1.78885438199983 0.0 0.894427190999916
v 1.41421356237309 0.0 1.41421356237309
v 1.33333333333333 -0.666666666666667 -1.33333333333333
v 1.63299316185545 -0.816496580927726 -0.816496580927726
v 1.78885438199983 -0.894427190999916 0.0
v 1.63299316185545 -0.816496580927726 0.816496580927726
v 1.33333333333333 -0.666666666666667 1.33333333333333
v 1.15470053837925 -1.15470053837925 -1.15470053837925
v 1.33333333333333 -1.33333333333333 -0.666666666666667
v 1.41421356237309 -1.41421356237309 0.0
v 1.33333333333333 -1.33333333333333 0.666666666666667
v 1.15470053837925 -1.15470053837925 1.15470053837925
v -1.15470053837925 1.15470053837925 1.15470053837925
v -1.33333333333333 1.33333333333333 0.666666666666667
v -1.41421356237309 1.41421356237309 0.0
v -1.33333333333333 1.33333333333333 -0.666666666666667
v -1.15470053837925 1.15470053837925 -1.15470053837925
v -1.33333333333333 0.666666666666667 1.33333333333333
v -1.63299316185545 0.816496580927726 0.816496580927726
v -1.78885438199983 0.894427190999916 0.0
v -1.63299316185545 0.816496580927726 -0.816496580927726
v -1.33333333333333 0.666666666666667 -1.33333333333333
v -1.41421356237309 0.0 1.41421356237309
v -1.78885438199983 0.0 0.894427190999916
v -2.0 0.0 0.0
v -1.78885438199983 0.0 -0.894427190999916
v -1.41421356237309 0.0 -1.41421356237309
v -1.33333333333333 -0.666666666666667 1.33333333333333
v -1.63299316185545 -0.816496580927726 0.816496580927726
v -1.78885438199983 -0.894427190999916 0.0
v -1.63299316185545 -0.816496580927726 -0.816496580927726
v -1.33333333333333 -0.666666666666667 -1.33333333333333
v -1.15470053837925 -1.15470053837925 1.15470053837925
v -1.33333333333333 -1.33333333333333 0.666666666666667
v -1.41421356237309 -1.41421356237309 0.0
v -1.33333333333333 -1.33333333333333 -0.666666666666667
v -1.15470053837925 -1.15470053837925 -1.15470053837925
v 1.15470053837925 1.15470053837925 1.15470053837925
v 0.666666666666667 1.33333333333333 1.33333333333333
v 0.0 1.41421356237309 1.41421356237309
v -0.666666666666667 1.33333333333333 1.33333333333333
v -1.15470053837925 1.15470053837925 1.15470053837925
v 1.33333333333333 0.666666666666667 1.33333333333333
v 0.816496580927726 0.816496580927726 1.63299316185545
v 0.0 0.894427190999916 1.78885438199983
v -0.816496580927726 0.816496580927726 1.63299316185545
v -1.33333333333333 0.666666666666667 1.33333333333333
v 1.41421356237309 0.0 1.41421356237309
v 0.894427190999916 0.0 1.78885438199983
v 0.0 0.0 2.0
v -0.894427190999916 0.0 1.78885438199983
v -1.41421356237309 0.0 1.41421356237309
v 1.33333333333333 -0.666666666666667 1.33333333333333
v 0.816496580927726 -0.816496580927726 1.63299316185545
v 0.0 -0.894427190999916 1.78885438199983
v -0.816496580927726 -0.816496580927726 1.63299316185545
v -1.33333333333333 -0.666666666666667 1.33333333333333
v 1.15470053837925 -1.15470053837925 1.15470053837925
v 0.666666666666667 -1.33333333333333 1.33333333333333
v 0.0 -1.41421356237309 1.41421356237309
v -0.666666666666667 -1.33333333333333 1.33333333333333
v -1.15470053837925 -1.15470053837925 1.15470053837925
v -1.15470053837925 1.15470053837925 -1.15470053837925
v -0.666666666666667 1.33333333333333 -1.33333333333333
v 0.0 1.41421356237309 -1.41421356237309
v 0.666666666666667 1.33333333333333 -1.33333333333333
v 1.15470053837925 1.15470053837925 -1.15470053837925
v -1.33333333333333 0.666666666666667 -1.33333333333333
v -0.816496580927726 0.816496580927726 -1.63299316185545
v 0.0 0.894427190999916 -1.78885438199983
v 0.816496580927726 0.816496580927726 -1.63299316185545
v 1.33333333333333 0.666666666666667 -1.33333333333333
v -1.41421356237309 0.0 -1.41421356237309
v -0.894427190999916 0.0 -1.78885438199983
v 0.0 0.0 -2.0
v 0.894427190999916 0.0 -1.78885438199983
v 1.41421356237309 0.0 -1.41421356237309
v -1.33333333333333 -0.666666666666667 -1.33333333333333
v -0.816496580927726 -0.816496580927726 -1.63299316185545
v 0.0 -0.894427190999916 -1.78885438199983
v 0.816496580927726 -0.816496580927726 -1.63299316185545
v 1.33333333333333 -0.666666666666667 -1.33333333333333
v -1.15470053837925 -1.15470053837925 -1.15470053837925
v -0.666666666666667 -1.33333333333333 -1.33333333333333
v 0.0 -1.41421356237309 -1.41421356237309
v 0.666666666666667 -1.33333333333333 -1.33333333333333
v 1.15470053837925 -1.15470053837925 -1.15470053837925
vt 0 0
vt 0.25 0
vt 0.5 0
vt 0.75 0
vt 1 0
vt 0 0.25
vt 0.25 0.25
vt 0.5 0.25
vt 0.75 0.25
vt 1 0.25
vt 0 0.5
vt 0.25 0.5
vt 0.5 0.5
vt 0.75 0.5
vt 1 0.5
vt 0 0.75
vt 0.25 0.75
vt 0.5 0.75
vt 0.75 0.75
vt 1 0.75
vt 0 1
vt 0.25 1
vt 0.5 1
vt 0.75 1
vt 1 1
vn -0.577350269189626 0.577350269189626 0.577350269189626
vn -0.333333333333333 0.666666666666667 0.666666666666667
vn 0.0 0.707106781186547 0.707106781186547
vn 0.333333333333333 0.666666666666667 0.666666666666667
vn 0.577350269189626 0.577350269189626 0.577350269189626
vn -0.666666666666667 0.666666666666667 0.333333333333333
vn -0.408248290463863 0.816496580927726 0.408248290463863
vn 0.0 0.894427190999916 0.447213595499958
vn 0.408248290463863 0.816496580927726 0.408248290463863
vn 0.666666666666667 0.666666666666667 0.333333333333333
vn -0.707106781186547 0.707106781186547 0.0
vn -0.447213595499958 0.894427190999916 0.0
vn 0.0 1.0 0.0
vn 0.447213595499958 0.894427190999916 0.0
vn 0.707106781186547 0.707106781186547 0.0
vn -0.666666666666667 0.666666666666667 -0.333333333333333
vn -0.408248290463863 0.816496580927726 -0.408248290463863
vn 0.0 0.894427190999916 -0.447213595499958
vn 0.408248290463863 0.816496580927726 -0.408248290463863
vn 0.666666666666667 0.666666666666667 -0.333333333333333
vn -0.577350269189626 0.577350269189626 -0.577350269189626
vn -0.333333333333333 0.666666666666667 -0.666666666666667
vn 0.0 0.707106781186547 -0.707106781186547
vn 0.333333333333333 0.666666666666667 -0.666666666666667
vn 0.577350269189626 0.577350269189626 -0.577350269189626
vn 0.577350269189626 -0.577350269189626 0.577350269189626
vn 0.333333333333333 -0.666666666666667 0.666666666666667
vn 0.0 -0.707106781186547 0.707106781186547
vn -0.333333333333333 -0.666666666666667 0.666666666666667
vn -0.577350269189626 -0.577350269189626 0.577350269189626
vn 0.666666666666667 -0.666666666666667 0.333333333333333
vn 0.408248290463863 -0.816496580927726 0.408248290463863
vn 0.0 -0.894427190999916 0.447213595499958
vn -0.408248290463863 -0.816496580927726 0.408248290463863
vn -0.666666666666667 -0.666666666666667 0.333333333333333
vn 0.707106781186547 -0.707106781186547 0.0
vn 0.447213595499958 -0.894427190999916 0.0
vn 0.0 -1.0 0.0
vn -0.447213595499958 -0.894427190999916 0.0
vn -0.707106781186547 -0.707106781186547 0.0
vn 0.666666666666667 -0.666666666666667 -0.333333333333333
vn 0.408248290463863 -0.816496580927726 -0.408248290463863
vn 0.0 -0.894427190999916 -0.447213595499958
vn -0.408248290463863 -0.816496580927726 -0.408248290463863
vn -0.666666666666667 -0.666666666666667 -0.333333333333333
vn 0.577350269189626 -0.577350269189626 -0.577350269189626
vn 0.333333333333333 -0.666666666666667 -0.666666666666667
vn 0.0 -0.707106781186547 -0.707106781186547
vn -0.333333333333333 -0.666666666666667 -0.666666666666667
vn -0.577350269189626 -0.577350269189626 -0.577350269189626
vn 0.577350269189626 0.577350269189626 -0.577350269189626
vn 0.666666666666667 0.666666666666667 -0.333333333333333
vn 0.707106781186547 0.707106781186547 0.0
vn 0.666666666666667 0.666666666666667 0.333333333333333
vn 0.577350269189626 0.577350269189626 0.577350269189626
vn 0.666666666666667 0.333333333333333 -0.666666666666667
vn 0.816496580927726 0.408248290463863 -0.408248290463863
vn 0.894427190999916 0.447213595499958 0.0
vn 0.816496580927726 0.408248290463863 0.408248290463863
vn 0.666666666666667 0.333333333333333 0.666666666666667
vn 0.707106781186547 0.0 -0.707106781186547
vn 0.894427190999916 0.0 -0.447213595499958
vn 1.0 0.0 0.0
vn 0.894427190999916 0.0 0.447213595499958
vn 0.707106781186547 0.0 0.707106781186547
vn 0.666666666666667 -0.333333333333333 -0.666666666666667
vn 0.816496580927726 -0.408248290463863 -0.408248290463863
vn 0.894427190999916 -0.447213595499958 0.0
vn 0.816496580927726 -0.408248290463863 0.408248290463863
vn 0.666666666666667 -0.333333333333333 0.666666666666667
vn 0.577350269189626 -0.577350269189626 -0.577350269189626
vn 0.666666666666667 -0.666666666666667 -0.333333333333333
vn 0.707106781186547 -0.707106781186547 0.0
vn 0.666666666666667 -0.666666666666667 0.333333333333333
vn 0.577350269189626 -0.577350269189626 0.577350269189626
vn -0.577350269189626 0.577350269189626 0.577350269189626
vn -0.666666666666667 0.666666666666667 0.333333333333333
vn -0.707106781186547 0.707106781186547 0.0
vn -0.666666666666667 0.666666666666667 -0.333333333333333
vn -0.577350269189626 0.577350269189626 -0.577350269189626
vn -0.666666666666667 0.333333333333333 0.666666666666667
vn -0.816496580927726 0.408248290463863 0.408248290463863
vn -0.894427190999916 0.447213595499958 0.0
vn -0.816496580927726 0.408248290463863 -0.408248290463863
vn -0.666666666666667 0.333333333333333 -0.666666666666667
vn -0.707106781186547 0.0 0.707106781186547
vn -0.894427190999916 0.0 0.447213595499958
vn -1.0 0.0 0.0
vn -0.894427190999916 0.0 -0.447213595499958
vn -0.707106781186547 0.0 -0.707106781186547
vn -0.666666666666667 -0.333333333333333 0.666666666666667
vn -0.816496580927726 -0.408248290463863 0.408248290463863
vn -0.894427190999916 -0.447213595499958 0.0
vn -0.816496580927726 -0.408248290463863 -0.408248290463863
vn -0.666666666666667 -0.333333333333333 -0.666666666666667
vn -0.577350269189626 -0.577350269189626 0.577350269189626
vn -0.666666666666667 -0.666666666666667 0.333333333333333
vn -0.707106781186547 -0.707106781186547 0.0
vn -0.666666666666667 -0.666666666666667 -0.333333333333333
vn -0.577350269189626 -0.577350269189626 -0.577350269189626
vn 0.577350269189626 0.577350269189626 0.577350269189626
vn 0.333333333333333 0.666666666666667 0.666666666666667
vn 0.0 0.707106781186547 0.707106781186547
vn -0.333333333333333 0.666666666666667 0.666666666666667
vn -0.577350269189626 0.577350269189626 0.577350269189626
vn 0.666666666666667 0.333333333333333 0.666666666666667
vn 0.408248290463863 0.408248290463863 0.816496580927726
vn 0.0 0.447213595499958 0.894427190999916
vn -0.408248290463863 0.408248290463863 0.816496580927726
vn -0.666666666666667 0.333333333333333 0.666666666666667
vn 0.707106781186547 0.0 0.707106781186547
vn 0.447213595499958 0.0 0.894427190999916
vn 0.0 0.0 1.0
vn -0.447213595499958 0.0 0.894427190999916
vn -0.707106781186547 0.0 0.707106781186547
vn 0.666666666666667 -0.333333333333333 0.666666666666667
vn 0.408248290463863 -0.408248290463863 0.816496580927726
vn 0.0 -0.447213595499958 0.894427190999916
vn -0.408248290463863 -0.408248290463863 0.816496580927726
vn -0.666666666666667 -0.333333333333333 0.666666666666667
vn 0.577350269189626 -0.577350269189626 0.577350269189626
vn 0.333333333333333 -0.666666666666667 0.666666666666667
vn 0.0 -0.707106781186547 0.707106781186547
vn -0.333333333333333 -0.666666666666667 0.666666666666667
vn -0.577350269189626 -0.577350269189626 0.577350269189626
vn -0.577350269189626 0.577350269189626 -0.577350269189626
vn -0.333333333333333 0.666666666666667 -0.666666666666667
vn 0.0 0.707106781186547 -0.707106781186547
vn 0.333333333333333 0.666666666666667 -0.666666666666667
vn 0.577350269189626 0.577350269189626 -0.577350269189626
vn -0.666666666666667 0.333333333333333 -0.666666666666667
vn -0.408248290463863 0.408248290463863 -0.816496580927726
vn 0.0 0.447213595499958 -0.894427190999916
vn 0.408248290463863 0.408248290463863 -0.816496580927726
vn 0.666666666666667 0.333333333333333 -0.666666666666667
vn -0.707106781186547 0.0 -0.707106781186547
vn -0.447213595499958 0.0 -0.894427190999916
vn 0.0 0.0 -1.0
vn 0.447213595499958 0.0 -0.894427190999916
vn 0.707106781186547 0.0 -0.707106781186547
vn -0.666666666666667 -0.333333333333333 -0.666666666666667
vn -0.408248290463863 -0.408248290463863 -0.816496580927726
vn 0.0 -0.447213595499958 -0.894427190999916
vn 0.408248290463863 -0.408248290463863 -0.816496580927726
vn 0.666666666666667 -0.333333333333333 -0.666666666666667
vn -0.577350269189626 -0.577350269189626 -0.577350269189626
vn -0.333333333333333 -0.666666666666667 -0.666666666666667
vn 0.0 -0.707106781186547 -0.707106781186547
vn 0.333333333333333 -0.666666666666667 -0.666666666666667
vn 0.577350269189626 -0.577350269189626 -0.577350269189626
f 1/1/1 2/2/2 7/7/7 6/6/6
f 2/2/2 3/3/3 8/8/8 7/7/7
f 3/3/3 4/4/4 9/9/9 8/8/8
f 4/4/4 5/5/5 10/10/10 9/9/9
f 6/6/6 7/7/7 12/12/12 11/11/11
f 7/7/7 8/8/8 13/13/13 12/12/12
f 8/8/8 9/9/9 14/14/14 13/13/13
f 9/9/9 10/10/10 15/15/15 14/14/14
f 11/11/11 12/12/12 17/17/17 16/16/16
f 12/12/12 13/13/13 18/18/18 17/17/17
f 13/13/13 14/14/14 19/19/19 18/18/18
f 14/14/14 15/15/15 20/20/20 19/19/19
f 16/16/16 17/17/17 22/22/22 21/21/21
f 17/17/17 18/18/18 23/23/23 22/22/22
f 18/18/18 19/19/19 24/24/24 23/23/23
f 19/19/19 20/20/20 25/25/25 24/24/24
f 26/1/26 27/2/27 32/7/32 31/6/31
f 27/2/27 28/3/28 33/8/33 32/7/32
f 28/3/28 29/4/29 34/9/34 33/8/33
f 29/4/29 30/5/30 35/10/35 34/9/34
f 31/6/31 32/7/32 37/12/37 36/11/36
f 32/7/32 33/8/33 38/13/38 37/12/37
f 33/8/33 34/9/34 39/14/39 38/13/38
f 34/9/34 35/10/35 40/15/40 39/14/39
f 36/11/36 37/12/37 42/17/42 41/16/41
f 37/12/37 38/13/38 43/18/43 42/17/42
f 38/13/38 39/14/39 44/19/44 43/18/43
f 39/14/39 40/15/40 45/20/45 44/19/44
f 41/16/41 42/17/42 47/22/47 46/21/46
f 42/17/42 43/18/43 48/23/48 47/22/47
f 43/18/43 44/19/44 49/24/49 48/23/48
f 44/19/44 45/20/45 50/25/50 49/24/49
f 51/1/51 52/2/52 57/7/57 56/6/56
f 52/2/52 53/3/53 58/8/58 57/7/57
f 53/3/53 54/4/54 59/9/59 58/8/58
f 54/4/54 55/5/55 60/10/60 59/9/59
f 56/6/56 57/7/57 62/12/62 61/11/61
f 57/7/57 58/8/58 63/13/63 62/12/62
f 58/8/58 59/9/59 64/14/64 63/13/63
f 59/9/59 60/10/60 65/15/65 64/14/64
f 61/11/61 62/12/62 67/17/67 66/16/66
f 62/12/62 63/13/63 68/18/68 67/17/67
f 63/13/63 64/14/64 69/19/69 68/18/68
f 64/14/64 65/15/65 70/20/70 69/19/69
f 66/16/66 67/17/67 72/22/72 71/21/71
f 67/17/67 68/18/68 73/23/73 72/22/72
f 68/18/68 69/19/69 74/24/74 73/23/73
f 69/19/69 70/20/70 75/25/75 74/24/74
f 76/1/76 77/2/77 82/7/82 81/6/81
f 77/2/77 78/3/78 83/8/83 82/7/82
f 78/3/78 79/4/79 84/9/84 83/8/83
f 79/4/79 80/5/80 85/10/85 84/9/84
f 81/6/81 82/7/82 87/12/87 86/11/86
f 82/7/82 83/8/83 88/13/88 87/12/87
f 83/8/83 84/9/84 89/14/89 88/13/88
f 84/9/84 85/10/85 90/15/90 89/14/89
f 86/11/86 87/12/87 92/17/92 91/16/91
f 87/12/87 88/13/88 93/18/93 92/17/92
f 88/13/88 89/14/89 94/19/94 93/18/93
f 89/14/89 90/15/90 95/20/95 94/19/94
f 91/16/91 92/17/92 97/22/97 96/21/96
f 92/17/92 93/18/93 98/23/98 97/22/97
f 93/18/93 94/19/94 99/24/99 98/23/98
f 94/19/94 95/20/95 100/25/100 99/24/99
f 101/1/101 102/2/102 107/7/107 106/6/106
f 102/2/102 103/3/103 108/8/108 107/7/107
f 103/3/103 104/4/104 109/9/109 108/8/108
f 104/4/104 105/5/105 110/10/110 109/9/109
f 106/6/106 107/7/107 112/12/112 111/11/111
f 107/7/107 108/8/108 113/13/113 112/12/112
f 108/8/108 109/9/109 114/14/114 113/13/113
f 109/9/109 110/10/110 115/15/115 114/14/114
f 111/11/111 112/12/112 117/17/117 116/16/116
f 112/12/112 113/13/113 118/18/118 117/17/117
f 113/13/113 114/14/114 119/19/119 118/18/118
f 114/14/114 115/15/115 120/20/120 119/19/119
f 116/16/116 117/17/117 122/22/122 121/21/121
f 117/17/117 118/18/118 123/23/123 122/22/122
f 118/18/118 119/19/119 124/24/124 123/23/123
f 119/19/119 120/20/120 125/25/125 124/24/124
f 126/1/126 127/2/127 132/7/132 131/6/131
f 127/2/127 128/3/128 133/8/133 132/7/132
f 128/3/128 129/4/129 134/9/134 133/8/133
f 129/4/129 130/5/130 135/10/135 134/9/134
f 131/6/131 132/7/132 137/12/137 136/11/136
f 132/7/132 133/8/133 138/13/138 137/12/137
f 133/8/133 134/9/134 139/14/139 138/13/138
f 134/9/134 135/10/135 140/15/140 139/14/139
f 136/11/136 137/12/137 142/17/142 141/16/141
f 137/12/137 138/13/138 143/18/143 142/17/142
f 138/13/138 139/14/139 144/19/144 143/18/143
f 139/14/139 140/15/140 145/20/145 144/19/144
f 141/16/141 142/17/142 147/22/147 146/21/146
f 142/17/142 143/18/143 148/23/148 147/22/147
f 143/18/143 144/19/144 149/24/149 148/23/148
f 144/19/144 145/20/145 150/25/150 149/24/149
